<svg width="24" height="24" viewBox="0 0 16 16" fill="none" xmlns="http://www.w3.org/2000/svg">
<path d="M2.66683 2L4.00016 4.66667H6.00016L4.66683 2H6.00016L7.3335 4.66667H9.3335L8.00016 2H9.3335L10.6668 4.66667H12.6668L11.3335 2H13.3335C13.7002 2 14.0141 2.13056 14.2752 2.39167C14.5363 2.65278 14.6668 2.96667 14.6668 3.33333V12.6667C14.6668 13.0333 14.5363 13.3472 14.2752 13.6083C14.0141 13.8694 13.7002 14 13.3335 14H2.66683C2.30016 14 1.98627 13.8694 1.72516 13.6083C1.46405 13.3472 1.3335 13.0333 1.3335 12.6667V3.33333C1.3335 2.96667 1.46405 2.65278 1.72516 2.39167C1.98627 2.13056 2.30016 2 2.66683 2ZM5.3335 12H10.6668V11.6333C10.6668 11.1444 10.4224 10.75 9.9335 10.45C9.44461 10.15 8.80016 10 8.00016 10C7.20016 10 6.55572 10.15 6.06683 10.45C5.57794 10.75 5.3335 11.1444 5.3335 11.6333V12ZM8.00016 9.33333C8.36683 9.33333 8.68072 9.20278 8.94183 8.94167C9.20294 8.68056 9.3335 8.36667 9.3335 8C9.3335 7.63333 9.20294 7.31944 8.94183 7.05833C8.68072 6.79722 8.36683 6.66667 8.00016 6.66667C7.6335 6.66667 7.31961 6.79722 7.0585 7.05833C6.79738 7.31944 6.66683 7.63333 6.66683 8C6.66683 8.36667 6.79738 8.68056 7.0585 8.94167C7.31961 9.20278 7.6335 9.33333 8.00016 9.33333Z" fill="black"/>
</svg>
