<svg width="16" height="13" viewBox="0 0 16 13" fill="none" xmlns="http://www.w3.org/2000/svg">
<path d="M7.99984 5.00001L5.6665 2.66668L7.99984 0.333344L10.3332 2.66668L7.99984 5.00001ZM0.666504 12.3333V9.66668C0.666504 9.2889 0.797059 8.97223 1.05817 8.71668C1.31928 8.46112 1.63317 8.33334 1.99984 8.33334H4.18317C4.40539 8.33334 4.6165 8.3889 4.8165 8.50001C5.0165 8.61112 5.17762 8.76112 5.29984 8.95001C5.62206 9.38334 6.01928 9.72223 6.4915 9.96668C6.96373 10.2111 7.4665 10.3333 7.99984 10.3333C8.54428 10.3333 9.05262 10.2111 9.52484 9.96668C9.99706 9.72223 10.3887 9.38334 10.6998 8.95001C10.8443 8.76112 11.0137 8.61112 11.2082 8.50001C11.4026 8.3889 11.6054 8.33334 11.8165 8.33334H13.9998C14.3776 8.33334 14.6943 8.46112 14.9498 8.71668C15.2054 8.97223 15.3332 9.2889 15.3332 9.66668V12.3333H10.6665V10.8167C10.2776 11.0945 9.85817 11.3056 9.40817 11.45C8.95817 11.5945 8.48873 11.6667 7.99984 11.6667C7.52206 11.6667 7.05539 11.5917 6.59984 11.4417C6.14428 11.2917 5.72206 11.0778 5.33317 10.8V12.3333H0.666504ZM2.6665 7.66668C2.11095 7.66668 1.63873 7.47223 1.24984 7.08334C0.860948 6.69446 0.666504 6.22223 0.666504 5.66668C0.666504 5.10001 0.860948 4.62501 1.24984 4.24168C1.63873 3.85834 2.11095 3.66668 2.6665 3.66668C3.23317 3.66668 3.70817 3.85834 4.0915 4.24168C4.47484 4.62501 4.6665 5.10001 4.6665 5.66668C4.6665 6.22223 4.47484 6.69446 4.0915 7.08334C3.70817 7.47223 3.23317 7.66668 2.6665 7.66668ZM13.3332 7.66668C12.7776 7.66668 12.3054 7.47223 11.9165 7.08334C11.5276 6.69446 11.3332 6.22223 11.3332 5.66668C11.3332 5.10001 11.5276 4.62501 11.9165 4.24168C12.3054 3.85834 12.7776 3.66668 13.3332 3.66668C13.8998 3.66668 14.3748 3.85834 14.7582 4.24168C15.1415 4.62501 15.3332 5.10001 15.3332 5.66668C15.3332 6.22223 15.1415 6.69446 14.7582 7.08334C14.3748 7.47223 13.8998 7.66668 13.3332 7.66668Z" fill="black"/>
</svg>
