<svg width="40" height="40" viewBox="0 0 40 40" fill="none" xmlns="http://www.w3.org/2000/svg">
<path d="M37.306 14.2153C37.3066 14.5393 37.2266 14.8584 37.0733 15.1437C36.9199 15.4291 36.6979 15.6718 36.4274 15.8501C36.1569 16.0283 35.8462 16.1365 35.5235 16.1648C35.2008 16.1931 34.8761 16.1406 34.5786 16.0122L29.7122 27.7513H10.2654L5.40285 16.0177C4.96342 16.2021 4.47172 16.2195 4.02035 16.0666C3.56898 15.9137 3.18909 15.6011 2.95221 15.1876C2.71533 14.774 2.63782 14.2882 2.73427 13.8215C2.83072 13.3548 3.09448 12.9394 3.47587 12.6537C3.85727 12.3679 4.32998 12.2315 4.80498 12.27C5.27998 12.3086 5.7245 12.5195 6.05482 12.863C6.38514 13.2065 6.57847 13.6589 6.59839 14.1351C6.61832 14.6112 6.46347 15.0782 6.16301 15.4482L12.9599 21.0107L14.5943 11.1357C14.1342 11.054 13.7186 10.8101 13.423 10.4482C13.1273 10.0863 12.9713 9.63046 12.983 9.16332C12.9948 8.69619 13.1737 8.24876 13.4872 7.90225C13.8007 7.55573 14.2281 7.3331 14.6917 7.27475C15.1553 7.2164 15.6245 7.32621 16.0141 7.58424C16.4036 7.84227 16.6878 8.23143 16.815 8.68107C16.9421 9.13072 16.9039 9.61106 16.7071 10.0349C16.5104 10.4588 16.1682 10.798 15.7427 10.9911L19.9857 20.1318L24.2372 10.9677C23.8143 10.7682 23.477 10.4237 23.2866 9.99661C23.0961 9.56955 23.0652 9.08834 23.1995 8.64043C23.3337 8.19252 23.6242 7.80764 24.0181 7.55573C24.4121 7.30381 24.8833 7.20159 25.3462 7.26763C25.8091 7.33367 26.233 7.56359 26.5407 7.91561C26.8485 8.26763 27.0198 8.71838 27.0234 9.18596C27.0271 9.65354 26.8628 10.1069 26.5606 10.4637C26.2583 10.8205 25.8381 11.057 25.3763 11.1302L27.0114 21.0068L33.8286 15.4364C33.6335 15.1929 33.4995 14.9061 33.438 14.6C33.3765 14.294 33.3892 13.9778 33.4751 13.6777C33.561 13.3776 33.7176 13.1025 33.9317 12.8754C34.1458 12.6483 34.4112 12.4758 34.7057 12.3724C35.0002 12.269 35.3152 12.2376 35.6243 12.281C35.9334 12.3244 36.2276 12.4412 36.4823 12.6217C36.7369 12.8022 36.9446 13.0411 37.0879 13.3184C37.2312 13.5956 37.306 13.9032 37.306 14.2153ZM31.7075 33.063H8.27004V37.7505H31.7075V33.063ZM29.5396 29.0005H10.4599V31.813H29.5396V29.0005Z" fill="white"/>
</svg>
