<svg width="40" height="40" viewBox="0 0 40 40" fill="none" xmlns="http://www.w3.org/2000/svg">
<path d="M18.3335 30.0006C21.5557 30.0006 24.3057 28.8687 26.5835 26.6048C28.8613 24.3409 30.0002 21.584 30.0002 18.334C30.0002 15.1118 28.8613 12.3618 26.5835 10.084C24.3057 7.80621 21.5557 6.66732 18.3335 6.66732C15.0835 6.66732 12.3266 7.80621 10.0627 10.084C7.79877 12.3618 6.66683 15.1118 6.66683 18.334C6.66683 21.584 7.79877 24.3409 10.0627 26.6048C12.3266 28.8687 15.0835 30.0006 18.3335 30.0006ZM18.3335 22.5007C19.5002 22.5007 20.4863 22.1048 21.2918 21.3132C22.0974 20.5215 22.5002 19.5284 22.5002 18.334C22.5002 17.1673 22.0974 16.1812 21.2918 15.3757C20.4863 14.5701 19.5002 14.1673 18.3335 14.1673C17.1391 14.1673 16.146 14.5701 15.3543 15.3757C14.5627 16.1812 14.1668 17.1673 14.1668 18.334C14.1668 19.5284 14.5627 20.5215 15.3543 21.3132C16.146 22.1048 17.1391 22.5007 18.3335 22.5007ZM18.3335 25.0007C16.0279 25.0007 13.9793 24.3826 12.1877 23.1465C10.396 21.9104 9.11127 20.3062 8.3335 18.334C9.11127 16.3895 10.396 14.7923 12.1877 13.5423C13.9793 12.2923 16.0279 11.6673 18.3335 11.6673C20.6113 11.6673 22.646 12.2923 24.4377 13.5423C26.2293 14.7923 27.5279 16.3895 28.3335 18.334C27.5279 20.3062 26.2293 21.9104 24.4377 23.1465C22.646 24.3826 20.6113 25.0007 18.3335 25.0007ZM18.3335 20.834C19.0279 20.834 19.6182 20.5979 20.1043 20.1257C20.5904 19.6534 20.8335 19.0562 20.8335 18.334C20.8335 17.6395 20.5904 17.0493 20.1043 16.5632C19.6182 16.077 19.0279 15.834 18.3335 15.834C17.6113 15.834 17.0141 16.077 16.5418 16.5632C16.0696 17.0493 15.8335 17.6395 15.8335 18.334C15.8335 19.0562 16.0696 19.6534 16.5418 20.1257C17.0141 20.5979 17.6113 20.834 18.3335 20.834ZM34.2918 36.6673L27.6668 30.084C26.3613 31.1118 24.9168 31.9104 23.3335 32.4798C21.7502 33.0493 20.0835 33.334 18.3335 33.334C16.2502 33.334 14.2988 32.9381 12.4793 32.1465C10.6599 31.3548 9.07655 30.2854 7.72933 28.9382C6.38211 27.5909 5.31266 26.0076 4.521 24.1882C3.72933 22.3687 3.3335 20.4173 3.3335 18.334C3.3335 16.2784 3.72933 14.3409 4.521 12.5215C5.31266 10.702 6.38211 9.11176 7.72933 7.75065C9.07655 6.38954 10.6599 5.31315 12.4793 4.52148C14.2988 3.72982 16.2502 3.33398 18.3335 3.33398C20.3891 3.33398 22.3265 3.72982 24.146 4.52148C25.9654 5.31315 27.5557 6.38954 28.9168 7.75065C30.2779 9.11176 31.3543 10.702 32.146 12.5215C32.9377 14.3409 33.3335 16.2784 33.3335 18.334C33.3335 20.1118 33.0418 21.7923 32.4585 23.3757C31.8752 24.959 31.0696 26.4034 30.0418 27.709L36.6668 34.334L34.2918 36.6673Z" fill="#E8EAED"/>
</svg>
