<?xml version="1.0" encoding="utf-8"?>
<svg viewBox="33.1783 -153.2668 500.4943 512.1747" xmlns="http://www.w3.org/2000/svg">
  <path d="M 439.695 326.059 C 439.733 369.774 353.03 356.327 246.886 356.419 C 140.741 356.51 55.35 370.105 55.312 326.391 C 55.275 282.676 141.946 273.094 248.09 273.002 C 354.234 272.91 439.657 282.344 439.695 326.059 Z" style="fill: rgb(152, 152, 152);" transform="matrix(0.9999999999999999, 0, 0, 0.9999999999999999, -5.684341886080802e-14, -1.1368683772161603e-13)"/>
  <polygon points="365.305 267.022 351.428 267.022 344.824 213.497 365.305 213.497 365.305 267.022" fill="#a0616a" transform="matrix(0.9999999999999999, 0, 0, 0.9999999999999999, -5.684341886080802e-14, -1.1368683772161603e-13)"/>
  <path d="M 339.975 263.058 L 368.28 263.058 C 368.28 263.058 368.28 263.058 368.28 263.058 L 368.28 279.908 C 368.28 279.908 368.28 279.908 368.28 279.908 L 324.666 279.908 C 324.666 279.908 324.666 279.908 324.666 279.908 L 324.666 278.367 C 324.666 269.912 331.52 263.058 339.975 263.058 Z" fill="#2f2e41" transform="matrix(0.9999999999999999, 0, 0, 0.9999999999999999, -5.684341886080802e-14, -1.1368683772161603e-13)"/>
  <polygon points="467.305 346.022 453.428 346.022 446.824 292.497 467.305 292.497 467.305 346.022" fill="#a0616a" transform="matrix(0.9999999999999999, 0, 0, 0.9999999999999999, -5.684341886080802e-14, -1.1368683772161603e-13)"/>
  <path d="M 441.975 342.058 L 470.28 342.058 C 470.28 342.058 470.28 342.058 470.28 342.058 L 470.28 358.908 C 470.28 358.908 470.28 358.908 470.28 358.908 L 426.666 358.908 C 426.666 358.908 426.666 358.908 426.666 358.908 L 426.666 357.367 C 426.666 348.912 433.52 342.058 441.975 342.058 Z" fill="#2f2e41" transform="matrix(0.9999999999999999, 0, 0, 0.9999999999999999, -5.684341886080802e-14, -1.1368683772161603e-13)"/>
  <path d="M 531.314 187.009 C 535.4 182.054 534.014 174.61 528.418 171.458 L 496.188 40.165 L 475.581 49.032 L 513.916 175.981 C 510.466 183.181 516.104 191.416 524.065 190.804 C 526.899 190.586 529.52 189.214 531.314 187.009 Z" fill="#a0616a" transform="matrix(0.9999999999999999, 0, 0, 0.9999999999999999, -5.684341886080802e-14, -1.1368683772161603e-13)"/>
  <path d="M 506.177 -78.336 C 501.279 -83.457 492.943 -82.905 488.762 -77.184 L 438.877 -71.457 L 446.465 -52.215 L 491.833 -60.706 C 499.274 -55.99 509.03 -61.098 509.393 -69.9 C 509.522 -73.034 508.36 -76.084 506.177 -78.336 L 506.177 -78.336 Z" fill="#a0616a" transform="matrix(0.9999999999999999, 0, 0, 0.9999999999999999, -5.684341886080802e-14, -1.1368683772161603e-13)"/>
  <path d="M 423.969 173.393 L 445.738 336.767 L 472.831 331.189 C 472.831 331.189 468.847 212.208 482.393 197.864 C 495.94 183.521 464.969 158.393 464.969 158.393 L 423.969 173.393 Z" fill="#2f2e41" transform="matrix(0.9999999999999999, 0, 0, 0.9999999999999999, -5.684341886080802e-14, -1.1368683772161603e-13)"/>
  <path d="M 432.969 128.393 L 422.969 143.393 C 422.969 143.393 345.969 111.394 345.969 162.393 C 345.969 213.392 341.563 248.003 339.969 250.393 C 338.376 252.784 358.407 258.987 367.969 257.393 C 367.969 257.393 379.766 175.174 378.969 170.393 C 378.969 170.393 454.503 207.427 468.847 204.239 C 483.19 201.052 486.579 189.768 488.969 183.393 C 491.36 177.018 487.969 126.393 487.969 126.393 L 440.159 111.803 L 432.969 128.393 Z" fill="#2f2e41" transform="matrix(0.9999999999999999, 0, 0, 0.9999999999999999, -5.684341886080802e-14, -1.1368683772161603e-13)"/>
  <path d="M 434.319 38.333 L 431.468 34.912 C 431.468 34.912 399.545 -36.916 412.086 -56.298 C 424.627 -75.68 479.354 -78.531 481.064 -77.39 C 482.774 -76.25 476.979 -61.448 480.969 -54.607 C 480.969 -54.607 438.575 -45.416 435.725 -44.275 C 432.875 -43.135 457.691 -1.002 457.691 -1.002 L 454.841 24.651 L 434.319 38.333 Z" style="fill: rgb(249, 64, 64);" transform="matrix(0.9999999999999999, 0, 0, 0.9999999999999999, -5.684341886080802e-14, -1.1368683772161603e-13)"/>
  <path d="M 490.185 2.989 C 490.185 2.989 460.542 6.409 459.401 6.409 C 458.261 6.409 457.691 -1.002 457.691 -1.002 L 431.468 34.912 C 431.468 34.912 418.549 139.103 421.969 137.393 C 425.39 135.683 488.475 145.505 489.045 140.944 C 489.615 136.384 488.475 113.581 490.185 112.441 C 491.895 111.301 519.828 40.613 519.828 40.613 C 519.828 40.613 516.978 25.791 507.287 20.661 C 497.596 15.53 490.185 2.989 490.185 2.989 Z" style="fill: rgb(249, 64, 64);" transform="matrix(0.9999999999999999, 0, 0, 0.9999999999999999, -5.684341886080802e-14, -1.1368683772161603e-13)"/>
  <path d="M 510.707 30.922 L 519.828 40.613 C 519.828 40.613 533.38 151.973 525.969 155.393 C 518.559 158.814 503.969 158.393 503.969 158.393 L 489.615 105.6 L 510.707 30.922 Z" style="fill: rgb(249, 64, 64);" transform="matrix(0.9999999999999999, 0, 0, 0.9999999999999999, -5.684341886080802e-14, -1.1368683772161603e-13)"/>
  <circle cx="461.699" cy="-30.302" r="26.239" fill="#a0616a" transform="matrix(0.9999999999999999, 0, 0, 0.9999999999999999, -5.684341886080802e-14, -1.1368683772161603e-13)"/>
  <path d="M 455.542 -26.208 C 455.188 -31.652 448.319 -31.839 442.863 -31.891 C 437.408 -31.942 430.885 -31.747 427.798 -36.246 C 425.758 -39.219 426.148 -43.346 427.833 -46.534 C 429.518 -49.721 432.291 -52.173 435.018 -54.531 C 442.059 -60.62 449.316 -66.661 457.77 -70.558 C 466.224 -74.455 476.131 -76.03 484.898 -72.901 C 495.668 -69.058 510.227 -49.275 511.485 -37.91 C 512.742 -26.544 508.2 -14.957 500.543 -6.464 C 492.886 2.03 475.361 -1.397 464.332 1.624 C 471.037 -7.865 466.617 -25.108 455.876 -29.54 L 455.542 -26.208 Z" fill="#2f2e41" transform="matrix(0.9999999999999999, 0, 0, 0.9999999999999999, -5.684341886080802e-14, -1.1368683772161603e-13)"/>
  <circle cx="221.691" cy="250.205" r="62.989" fill="#ff0000" transform="matrix(0.9999999999999999, 0, 0, 0.9999999999999999, -5.684341886080802e-14, -1.1368683772161603e-13)"/>
  <path d="M 179.626 182.74 C 161.791 182.741 145.626 172.245 138.37 155.953 L 38.418 -69.138 C 19.726 -111.232 53.612 -157.776 99.412 -152.916 C 123.232 -150.389 143.249 -133.899 150.288 -111.003 L 222.666 124.41 C 231.574 153.377 209.932 182.707 179.626 182.74 L 179.626 182.74 Z" fill="#ff0000" transform="matrix(0.9999999999999999, 0, 0, 0.9999999999999999, -5.684341886080802e-14, -1.1368683772161603e-13)"/>
</svg>