<svg width="20" height="20" viewBox="0 0 20 20" fill="none" xmlns="http://www.w3.org/2000/svg">
<path d="M0.341309 19.6585V2.79993C0.341309 2.28481 0.524723 1.84383 0.891553 1.477C1.25838 1.11017 1.69936 0.926758 2.21448 0.926758H17.1998C17.715 0.926758 18.1559 1.11017 18.5228 1.477C18.8896 1.84383 19.073 2.28481 19.073 2.79993V14.039C19.073 14.5541 18.8896 14.9951 18.5228 15.3619C18.1559 15.7287 17.715 15.9121 17.1998 15.9121H4.08765L0.341309 19.6585ZM6.96765 12.3999L9.70716 10.7375L12.4467 12.3999L11.7208 9.28578L14.1559 7.17847L10.9481 6.9209L9.70716 3.97066L8.46619 6.9209L5.25838 7.17847L7.6935 9.28578L6.96765 12.3999Z" fill="#FF0000"/>
</svg>
