<svg width="34" height="34" viewBox="0 0 34 34" fill="none" xmlns="http://www.w3.org/2000/svg">
<path d="M10.3335 0.333984V3.66732C10.9895 3.66732 12.5169 4.03717 13.6147 4.70898C13.9935 4.94077 14.2929 5.18072 14.5522 5.43815C8.13792 6.15327 3.91519 9.85338 3.66683 17.0007C1.82588 17.0007 0.333496 18.493 0.333496 20.334C0.333496 22.1749 1.82588 23.6673 3.66683 23.6673C3.97174 23.6673 4.27166 23.6398 4.55225 23.5632C6.38656 29.3605 10.9294 33.6673 17.0002 33.6673C23.0709 33.6673 27.6138 29.3605 29.4481 23.5632C29.7287 23.6398 30.0286 23.6673 30.3335 23.6673C32.1744 23.6673 33.6668 22.1749 33.6668 20.334C33.6668 18.493 32.1744 17.0007 30.3335 17.0007C30.0805 9.72045 25.7004 6.05518 19.0835 5.43815C19.7724 4.13902 21.0627 3.51107 21.0627 3.51107L19.6043 0.490234C19.6043 0.490234 17.9822 1.27279 16.7397 2.93815C16.3037 2.52137 15.8147 2.13887 15.3335 1.8444C13.6397 0.80788 11.8442 0.333984 10.3335 0.333984ZM13.6668 13.6673C14.8335 13.6673 16.0002 13.9902 17.0002 14.6569C18.0002 14.1569 19.1668 13.6673 20.3335 13.6673C24.0002 13.6673 27.0002 16.6673 27.0002 20.334C27.0002 22.834 25.6668 25.0007 23.6668 26.1673C23.3335 29.5007 20.5002 32.0007 17.0002 32.0007C13.5002 32.0007 10.8335 29.5007 10.3335 26.1673C8.3335 25.0007 7.00016 22.834 7.00016 20.334C7.00016 16.6673 10.0002 13.6673 13.6668 13.6673ZM12.0002 20.334C11.0797 20.334 10.3335 21.0802 10.3335 22.0007C10.3335 22.9211 11.0797 23.6673 12.0002 23.6673C12.9206 23.6673 13.6668 22.9211 13.6668 22.0007C13.6668 21.0802 12.9206 20.334 12.0002 20.334ZM22.0002 20.334C21.0797 20.334 20.3335 21.0802 20.3335 22.0007C20.3335 22.9211 21.0797 23.6673 22.0002 23.6673C22.9206 23.6673 23.6668 22.9211 23.6668 22.0007C23.6668 21.0802 22.9206 20.334 22.0002 20.334Z" fill="black"/>
</svg>
