<svg width="37" height="37" viewBox="0 0 37 37" fill="none" xmlns="http://www.w3.org/2000/svg">
<g clip-path="url(#clip0_432_787)">
<path d="M18.5 37C28.7173 37 37 28.7173 37 18.5C37 8.28273 28.7173 0 18.5 0C8.28273 0 0 8.28273 0 18.5C0 28.7173 8.28273 37 18.5 37Z" fill="black"/>
<path d="M18.5002 32.3977C14.4506 32.3977 10.6923 30.5623 8.18682 27.3867C7.31281 26.2796 7.51675 24.6481 8.62383 23.7741C9.73092 22.9 11.3624 23.104 12.2364 24.2111C13.7805 26.1339 16.053 27.241 18.5002 27.241C20.9475 27.241 23.2199 26.1339 24.764 24.1819C25.638 23.0749 27.2695 22.8709 28.3766 23.7449C29.4837 24.6189 29.6876 26.2504 28.8136 27.3575C26.3081 30.5623 22.5498 32.3977 18.5002 32.3977Z" fill="white"/>
<path d="M18.4998 30.8527C14.9164 30.8527 11.6242 29.2504 9.41006 26.4244C9.06045 25.9874 9.14785 25.3173 9.58486 24.9677C10.0219 24.6181 10.6919 24.7055 11.0416 25.1425C12.8479 27.4441 15.5864 28.7842 18.4998 28.7842C21.4423 28.7842 24.1518 27.4441 25.9581 25.1425C26.3077 24.7055 26.9486 24.6181 27.4148 24.9677C27.8518 25.3173 27.9392 25.9582 27.5896 26.4244C25.3754 29.2212 22.0833 30.8527 18.4998 30.8527Z" fill="white"/>
<path d="M18.4998 24.0055C20.7363 24.0055 22.5494 22.1924 22.5494 19.9559C22.5494 17.7193 20.7363 15.9062 18.4998 15.9062C16.2633 15.9062 14.4502 17.7193 14.4502 19.9559C14.4502 22.1924 16.2633 24.0055 18.4998 24.0055Z" fill="white"/>
<path d="M17.3392 19.0107C17.9046 18.4384 18.1031 17.7177 17.7826 17.4011C17.4621 17.0845 16.744 17.2918 16.1785 17.8641C15.6131 18.4364 15.4146 19.1571 15.7351 19.4737C16.0556 19.7903 16.7738 19.583 17.3392 19.0107Z" fill="white"/>
<path d="M27.6774 8.91469H25.9585V7.19579C25.9585 6.67138 25.5214 6.23438 24.997 6.23438C24.4726 6.23438 24.0356 6.67138 24.0356 7.19579V8.91469H22.2876C21.7632 8.91469 21.3262 9.3517 21.3262 9.87611C21.3262 10.4005 21.7632 10.8375 22.2876 10.8375H24.0065V12.5564C24.0065 13.0808 24.4435 13.5178 24.9679 13.5178C25.4923 13.5178 25.9293 13.0808 25.9293 12.5564V10.8375H27.6482C28.1726 10.8375 28.6096 10.4005 28.6096 9.87611C28.6679 9.3517 28.2309 8.91469 27.6774 8.91469Z" fill="white"/>
<path d="M14.7127 8.91469H12.9938V7.19579C12.9938 6.67138 12.5568 6.23438 12.0324 6.23438C11.5079 6.23438 11.0709 6.67138 11.0709 7.19579V8.91469H9.35204C8.82763 8.91469 8.39062 9.3517 8.39062 9.87611C8.39062 10.4005 8.82763 10.8375 9.35204 10.8375H11.0709V12.5564C11.0709 13.0808 11.5079 13.5178 12.0324 13.5178C12.5568 13.5178 12.9938 13.0808 12.9938 12.5564V10.8375H14.7127C15.2371 10.8375 15.6741 10.4005 15.6741 9.87611C15.7032 9.3517 15.2662 8.91469 14.7127 8.91469Z" fill="white"/>
</g>
<defs>
<clipPath id="clip0_432_787">
<rect width="37" height="37" fill="white"/>
</clipPath>
</defs>
</svg>
