<svg width="38" height="34" viewBox="0 0 38 34" fill="none" xmlns="http://www.w3.org/2000/svg">
<path d="M18.8047 0.46875C18.5859 1.52344 17.375 2.97656 16.2656 3.51562C15.9453 3.67188 15.5234 3.85156 15.3281 3.91406C13.4375 4.53906 10.0625 4.59375 5.36719 4.07812L4.89844 4.03125L4.35156 4.53125L3.8125 5.03906L4.10156 5.39062C4.25781 5.58594 4.39062 5.77344 4.39062 5.80469C4.39062 5.84375 3.46094 8.33594 2.32031 11.3516C0.882812 15.1641 0.25 16.9219 0.25 17.1406C0.25 17.3047 0.304688 17.6875 0.367188 17.9766C0.648438 19.2969 1.47656 20.3281 2.75 20.9453C5.74219 22.3984 9.36719 20.9609 10 18.0703C10.25 16.9531 10.3984 17.4453 8.01562 11.625C6.82812 8.72656 5.84375 6.3125 5.82812 6.26562C5.74219 6.07031 9.53125 5.80469 11.4219 5.86719C12.8594 5.92188 13.6641 6.01562 14.5781 6.24219C15.9922 6.60156 17.1562 7.35938 17.9453 8.42969L18.2109 8.78906L16.8516 16.1953C16.1016 20.2656 15.4844 23.625 15.4844 23.6562C15.4844 23.6875 15.8281 24.2031 16.25 24.7969C16.6719 25.3984 17.0391 25.9219 17.0703 25.9688C17.1016 26.0234 16.9219 26.1719 16.6016 26.3594C15.5703 26.9688 14.6797 28.2109 14.3438 29.5078C14.2109 30.0234 14.1875 30.0625 13.9609 30.0938C10.2891 30.6328 8.375 31.1953 7.3125 32.0625C7.01562 32.2969 6.73438 32.7344 6.73438 32.9453C6.73438 33.0078 10.1172 33.0312 18.9219 33.0312C29.875 33.0312 31.1094 33.0156 31.1094 32.9141C31.1094 32.5 30.5234 31.9375 29.6797 31.5234C28.4141 30.9141 26.5234 30.4375 23.9922 30.1016C23.6406 30.0547 23.625 30.0469 23.5781 29.7344C23.3672 28.4297 22.2422 26.8047 21.1328 26.2188C20.9297 26.1094 20.8125 26 20.8359 25.9375C20.8594 25.8828 21.2109 25.3594 21.6172 24.7891C22.0234 24.2109 22.3594 23.6953 22.3594 23.6406C22.3594 23.5781 21.7422 20.2031 20.9922 16.125C19.8984 10.1406 19.6484 8.67969 19.7188 8.54688C19.875 8.25 20.6719 7.46875 21.1406 7.15625C22.3906 6.30469 23.7891 5.96094 26.3438 5.86719C28.1094 5.80469 31.9688 6.07031 31.9688 6.24219C31.9688 6.28125 31.0703 8.6875 29.9766 11.5938C28.8672 14.5312 27.9844 16.9766 27.9844 17.1172C27.9922 17.6016 28.2188 18.4688 28.5 19.0391C29.0469 20.1406 30.1719 21 31.5781 21.3672C32.25 21.5469 33.625 21.5391 34.3125 21.3672C36.3516 20.8359 37.6562 19.375 37.8672 17.3984L37.9141 16.8984L35.6484 11.3516L33.3828 5.80469L33.7109 5.46875L34.0391 5.125L33.4531 4.57812L32.875 4.03125L32.3984 4.07812C28.3906 4.52344 25.2891 4.54688 23.375 4.15625C22.0156 3.875 21.1484 3.44531 20.2969 2.63281C19.6719 2.03906 19.3047 1.49219 19.0391 0.726562C18.8594 0.210938 18.8594 0.203125 18.8047 0.46875ZM6.79688 12.5078L8.50781 16.7031H5.19531C2.57031 16.7031 1.88281 16.6797 1.90625 16.6016C2.125 15.9766 5.05469 8.27344 5.07031 8.28906C5.07812 8.30469 5.85938 10.2031 6.79688 12.5078ZM34.5391 12.5L36.2422 16.6641L32.9609 16.6875C31.1562 16.6953 29.6641 16.6953 29.6484 16.6797C29.6328 16.6641 30.3359 14.7656 31.2031 12.4609C32.0781 10.1641 32.7969 8.28906 32.8125 8.30469C32.8281 8.32031 33.6016 10.2031 34.5391 12.5Z" fill="black"/>
</svg>
