<svg width="40" height="40" viewBox="0 0 40 40" fill="none" xmlns="http://www.w3.org/2000/svg">
<path d="M19.9998 35L14.6665 30.25C12.6665 28.4444 10.9512 26.8333 9.52067 25.4167C8.09012 24 6.90956 22.6667 5.979 21.4167C5.04845 20.1667 4.36789 18.9583 3.93734 17.7917C3.50678 16.625 3.2915 15.4028 3.2915 14.125C3.2915 11.5139 4.1665 9.34028 5.9165 7.60417C7.6665 5.86806 9.84706 5 12.4582 5C13.9026 5 15.2776 5.30556 16.5832 5.91667C17.8887 6.52778 19.0276 7.38889 19.9998 8.5C20.9721 7.38889 22.1109 6.52778 23.4165 5.91667C24.7221 5.30556 26.0971 5 27.5415 5C30.1526 5 32.3332 5.86806 34.0832 7.60417C35.8332 9.34028 36.7082 11.5139 36.7082 14.125C36.7082 15.4028 36.4929 16.625 36.0623 17.7917C35.6318 18.9583 34.9512 20.1667 34.0207 21.4167C33.0901 22.6667 31.9096 24 30.479 25.4167C29.0484 26.8333 27.3332 28.4444 25.3332 30.25L19.9998 35ZM7.12484 16.6667H32.8748C33.0415 16.2222 33.1665 15.7917 33.2498 15.375C33.3332 14.9583 33.3748 14.5417 33.3748 14.125C33.3748 12.4583 32.7984 11.0764 31.6457 9.97917C30.4929 8.88194 29.1248 8.33333 27.5415 8.33333C26.2359 8.33333 25.0346 8.71528 23.9373 9.47917C22.8401 10.2431 21.8609 11.25 20.9998 12.5H18.9998C18.1387 11.25 17.1596 10.2431 16.0623 9.47917C14.9651 8.71528 13.7637 8.33333 12.4582 8.33333C10.8748 8.33333 9.50678 8.88194 8.354 9.97917C7.20123 11.0764 6.62484 12.4583 6.62484 14.125C6.62484 14.5417 6.6665 14.9583 6.74984 15.375C6.83317 15.7917 6.95817 16.2222 7.12484 16.6667ZM11.3748 22.5H28.6248C29.0693 22.0278 29.4721 21.5903 29.8332 21.1875C30.1943 20.7847 30.5276 20.3889 30.8332 20H9.1665C9.47206 20.3889 9.80539 20.7847 10.1665 21.1875C10.5276 21.5903 10.9304 22.0278 11.3748 22.5ZM19.9998 30.5C20.9998 29.6111 21.9373 28.7847 22.8123 28.0208C23.6873 27.2569 24.4859 26.5278 25.2082 25.8333H14.7915C15.5137 26.5278 16.3123 27.2569 17.1873 28.0208C18.0623 28.7847 18.9998 29.6111 19.9998 30.5Z" fill="black"/>
</svg>
