<svg width="25" height="24" viewBox="0 0 25 24" fill="none" xmlns="http://www.w3.org/2000/svg">
<path d="M23.2583 5.98854C19.9508 0.23128 12.6182 -1.68781 6.84871 1.61007C1.07662 4.91049 -0.846561 12.2275 2.4609 17.9847C5.7658 23.7445 13.1597 25.6636 18.8705 22.3632C24.64 19.0653 26.5632 11.7483 23.2583 5.98854ZM17.6676 20.3243C13.0397 22.9647 7.20883 21.4049 4.50412 16.7869C1.85815 12.2275 3.48251 6.34789 8.0491 3.64894C12.6795 1.01115 18.5104 2.57088 21.2151 7.18892C23.8585 11.807 22.2954 17.6254 17.6676 20.3243ZM17.1874 11.5062L10.8764 7.84901C10.1536 7.60944 10.0336 7.72922 9.85224 8.44793L9.91354 15.7063C10.0336 16.425 10.2737 16.5448 10.9351 16.3052L17.1874 12.7066C17.7288 12.2861 17.7288 11.9267 17.1874 11.5062Z" fill="red"/>
</svg>
