<svg width="350" height="43" viewBox="0 0 350 43" fill="none" xmlns="http://www.w3.org/2000/svg">
<path d="M96.1169 10.6085C90.2578 0.409706 77.2683 -2.9899 67.0477 2.85218C56.8226 8.69878 53.4158 21.6606 59.2748 31.8594C65.1294 42.0628 78.2275 45.4624 88.344 39.6158C98.5645 33.7737 101.971 20.8119 96.1169 10.6085ZM86.213 36.004C78.0148 40.6813 67.6857 37.9182 62.8943 29.7375C58.2071 21.6606 61.0846 11.2451 69.1742 6.46398C77.3769 1.79122 87.706 4.55424 92.4974 12.735C97.1801 20.9157 94.4112 31.2229 86.213 36.004ZM85.3624 20.383L74.1827 13.9043C72.9023 13.4799 72.6896 13.6921 72.3684 14.9653L72.477 27.8233C72.6896 29.0964 73.1149 29.3086 74.2867 28.8842L85.3624 22.5094C86.3216 21.7645 86.3216 21.1279 85.3624 20.383Z" fill="black"/>
<path d="M1.484 42.5153C1.02251 42.5153 0.66056 42.3799 0.398145 42.0999C0.131207 41.811 0 41.4137 0 40.9081V1.41304C0 0.957051 0.0904875 0.627474 0.271463 0.419796C0.461486 0.216632 0.769145 0.112793 1.19444 0.112793H17.2288C17.722 0.112793 18.0704 0.180514 18.2785 0.311442C18.4957 0.446884 18.6812 0.722284 18.8395 1.14216L24.7936 19.3095C24.9112 19.612 25.047 19.761 25.1917 19.761C25.3094 19.761 25.427 19.612 25.5356 19.3095L30.8743 1.75616C31.173 0.663592 31.6887 0.112793 32.4126 0.112793H48.9719C49.6596 0.112793 50.0034 0.510091 50.0034 1.30469V40.8539C50.0034 41.4679 49.8586 41.9013 49.5691 42.1541C49.2795 42.3979 48.809 42.5153 48.1575 42.5153H38.4753C37.9052 42.5153 37.5161 42.4024 37.299 42.1722C37.0908 41.9464 36.9913 41.5853 36.9913 41.0886V15.4268C36.9913 15.1153 36.9189 14.9573 36.7741 14.9573C36.5796 14.9573 36.4212 15.1334 36.3036 15.481L28.0511 41.4859C27.7842 42.1722 27.3272 42.5153 26.6757 42.5153H20.6674C19.9797 42.5153 19.5182 42.1722 19.2919 41.4859L11.0395 15.9325C10.9309 15.5623 10.7952 15.3726 10.6413 15.3726C10.4468 15.3726 10.3518 15.5803 10.3518 15.9866V41.2512C10.3518 41.7568 10.2703 42.0954 10.1165 42.2625C9.97173 42.434 9.6324 42.5153 9.10305 42.5153H1.484Z" fill="#FF0000"/>
<path d="M136.328 0.112793C136.663 0.112793 136.934 0.216632 137.142 0.419796C137.36 0.627474 137.468 0.902874 137.468 1.25051C137.468 1.48076 137.45 1.64781 137.414 1.75616L124.13 41.0886C123.85 42.0413 123.139 42.5153 121.995 42.5153H112.729C111.58 42.5153 110.874 42.0413 110.611 41.0886L97.3098 1.75616C97.2374 1.53042 97.2012 1.35886 97.2012 1.25051C97.2012 0.902874 97.3143 0.627474 97.545 0.419796C97.7712 0.216632 98.0563 0.112793 98.3956 0.112793H109.453C110.177 0.112793 110.652 0.510091 110.883 1.30469L118.574 26.3886C118.647 26.6685 118.737 26.804 118.846 26.804C118.927 26.804 119.027 26.6505 119.135 26.3344L126.302 1.30469C126.374 0.920933 126.555 0.627474 126.845 0.419796C127.134 0.216632 127.447 0.112793 127.786 0.112793H136.328Z" fill="#FF0000"/>
<path d="M151.387 0.112793C152.074 0.112793 152.418 0.510091 152.418 1.30469V40.8539C152.418 41.4679 152.26 41.9013 151.948 42.1541C151.645 42.3979 151.174 42.5153 150.536 42.5153H140.963C140.393 42.5153 139.994 42.4024 139.768 42.1722C139.537 41.9464 139.424 41.5853 139.424 41.0886V1.41304C139.424 1.00671 139.515 0.686166 139.696 0.455914C139.886 0.230176 140.157 0.112793 140.51 0.112793H151.387Z" fill="#FF0000"/>
<path d="M155.979 1.41304C155.979 0.546209 156.341 0.112793 157.065 0.112793H187.993C188.681 0.112793 189.025 0.510091 189.025 1.30469L188.971 7.93234C188.971 8.97073 188.469 9.48541 187.469 9.48541H170.294C169.412 9.48541 168.973 9.84659 168.973 10.5689V15.4268C168.973 15.8015 169.068 16.095 169.263 16.3117C169.453 16.5194 169.701 16.6187 170.005 16.6187H180.32C181.116 16.6187 181.515 17.007 181.515 17.7745V24.8536C181.515 25.5037 181.171 25.8288 180.483 25.8288H169.896C169.629 25.8288 169.407 25.9101 169.226 26.0636C169.054 26.208 168.973 26.3977 168.973 26.6234V32.3481C168.973 32.6506 169.018 32.8628 169.118 32.9802C169.213 33.0885 169.394 33.1427 169.661 33.1427H188.283C189.116 33.1427 189.532 33.5039 189.532 34.2262V41.2512C189.532 41.6394 189.414 41.9464 189.188 42.1722C188.957 42.4024 188.613 42.5153 188.156 42.5153H157.517C156.947 42.5153 156.549 42.4024 156.323 42.1722C156.092 41.9464 155.979 41.5853 155.979 41.0886V1.41304Z" fill="#FF0000"/>
<path d="M193.571 42.5153C193.109 42.5153 192.747 42.3799 192.485 42.0999C192.218 41.811 192.087 41.4137 192.087 40.9081V1.41304C192.087 0.957051 192.177 0.627474 192.358 0.419796C192.548 0.216632 192.856 0.112793 193.281 0.112793H209.316C209.809 0.112793 210.157 0.180514 210.365 0.311442C210.583 0.446884 210.768 0.722284 210.926 1.14216L216.881 19.3095C216.998 19.612 217.134 19.761 217.279 19.761C217.396 19.761 217.514 19.612 217.622 19.3095L222.961 1.75616C223.26 0.663592 223.776 0.112793 224.5 0.112793H241.059C241.746 0.112793 242.09 0.510091 242.09 1.30469V40.8539C242.09 41.4679 241.946 41.9013 241.656 42.1541C241.366 42.3979 240.896 42.5153 240.244 42.5153H230.562C229.992 42.5153 229.603 42.4024 229.386 42.1722C229.178 41.9464 229.078 41.5853 229.078 41.0886V15.4268C229.078 15.1153 229.006 14.9573 228.861 14.9573C228.667 14.9573 228.508 15.1334 228.391 15.481L220.138 41.4859C219.871 42.1722 219.414 42.5153 218.763 42.5153H212.754C212.067 42.5153 211.605 42.1722 211.379 41.4859L203.126 15.9325C203.018 15.5623 202.882 15.3726 202.728 15.3726C202.534 15.3726 202.439 15.5803 202.439 15.9866V41.2512C202.439 41.7568 202.357 42.0954 202.203 42.2625C202.059 42.434 201.719 42.5153 201.19 42.5153H193.571Z" fill="#FF0000"/>
<path d="M245.12 42.5153C244.817 42.5153 244.568 42.416 244.378 42.2083C244.184 41.9916 244.089 41.6981 244.089 41.3234C244.089 41.048 244.148 40.741 244.27 40.4024L258.133 1.41304C258.314 0.920933 258.517 0.582327 258.748 0.401737C258.974 0.212118 259.336 0.112793 259.834 0.112793H271.127C271.584 0.112793 271.995 0.257265 272.357 0.546209C272.719 0.826124 272.995 1.19182 273.19 1.64781L286.944 40.5649C287.016 40.881 287.052 41.1067 287.052 41.2512C287.052 41.6033 286.971 41.9013 286.817 42.1541C286.672 42.3979 286.442 42.5153 286.129 42.5153H274.909C274.257 42.5153 273.832 42.1902 273.642 41.5401L271.416 34.9666C271.294 34.7048 271.185 34.5242 271.09 34.4249C271.004 34.3301 270.823 34.2804 270.547 34.2804H258.404C257.943 34.2804 257.662 34.4926 257.553 34.9125L255.201 41.6665C254.97 42.2354 254.513 42.5153 253.825 42.5153H245.12ZM267.688 24.5647C268.109 24.5647 268.321 24.3796 268.321 24.0048C268.321 23.9236 268.285 23.7294 268.213 23.4269L264.774 13.657C264.688 13.4674 264.566 13.3681 264.412 13.3681C264.268 13.3681 264.159 13.4674 264.087 13.657L260.594 23.3728C260.508 23.5172 260.467 23.7069 260.467 23.9326C260.467 24.357 260.693 24.5647 261.155 24.5647H267.688Z" fill="#FF0000"/>
<path d="M277.152 1.41304C277.152 1.04283 277.27 0.735828 277.514 0.492032C277.768 0.239206 278.121 0.112793 278.582 0.112793H312.823C313.279 0.112793 313.637 0.239206 313.89 0.492032C314.144 0.735828 314.27 1.04283 314.27 1.41304V8.22128C314.27 8.94364 313.845 9.30482 313.004 9.30482H302.869C302.407 9.30482 302.181 9.49895 302.181 9.88271V41.2512C302.181 41.6756 302.082 41.9916 301.892 42.2083C301.697 42.416 301.43 42.5153 301.095 42.5153H290.201C289.513 42.5153 289.169 42.1361 289.169 41.3776V10.0994C289.169 9.57119 288.956 9.30482 288.536 9.30482H278.455C277.587 9.30482 277.152 8.94364 277.152 8.22128V1.41304Z" fill="#FF0000"/>
<path d="M316.447 1.41304C316.447 0.546209 316.809 0.112793 317.533 0.112793H348.462C349.149 0.112793 349.493 0.510091 349.493 1.30469L349.439 7.93234C349.439 8.97073 348.937 9.48541 347.937 9.48541H330.762C329.88 9.48541 329.441 9.84659 329.441 10.5689V15.4268C329.441 15.8015 329.536 16.095 329.731 16.3117C329.921 16.5194 330.17 16.6187 330.473 16.6187H340.788C341.585 16.6187 341.983 17.007 341.983 17.7745V24.8536C341.983 25.5037 341.639 25.8288 340.951 25.8288H330.364C330.097 25.8288 329.876 25.9101 329.695 26.0636C329.523 26.208 329.441 26.3977 329.441 26.6234V32.3481C329.441 32.6506 329.487 32.8628 329.586 32.9802C329.681 33.0885 329.862 33.1427 330.129 33.1427H348.751C349.584 33.1427 350 33.5039 350 34.2262V41.2512C350 41.6394 349.882 41.9464 349.656 42.1722C349.425 42.4024 349.082 42.5153 348.625 42.5153H317.986C317.415 42.5153 317.017 42.4024 316.791 42.1722C316.56 41.9464 316.447 41.5853 316.447 41.0886V1.41304Z" fill="#FF0000"/>
</svg>
